<svg width="208" height="180" viewBox="0 0 208 180" fill="none" xmlns="http://www.w3.org/2000/svg">
<rect y="16" width="208" height="128" rx="6" fill="#27D184"/>
<rect x="12" width="184" height="132" rx="4" fill="url(#paint0_linear)"/>
<path d="M104 12V70" stroke="url(#paint1_linear)" stroke-width="2" stroke-linecap="round"/>
<path d="M132 29C132 31.7614 129.761 34 127 34C124.239 34 122 31.7614 122 29C122 26.2386 124.239 24 127 24C129.761 24 132 26.2386 132 29Z" fill="url(#paint2_linear)"/>
<path d="M132 61C132 63.7614 129.761 66 127 66C124.239 66 122 63.7614 122 61C122 58.2386 124.239 56 127 56C129.761 56 132 58.2386 132 61Z" fill="url(#paint3_linear)"/>
<path d="M139 50C141.761 50 144 47.7614 144 45C144 42.2386 141.761 40 139 40C136.239 40 134 42.2386 134 45C134 47.7614 136.239 50 139 50Z" fill="url(#paint4_linear)"/>
<path d="M150 29C150 31.7614 147.761 34 145 34C142.239 34 140 31.7614 140 29C140 26.2386 142.239 24 145 24C147.761 24 150 26.2386 150 29Z" fill="url(#paint5_linear)"/>
<path d="M145 66C147.761 66 150 63.7614 150 61C150 58.2386 147.761 56 145 56C142.239 56 140 58.2386 140 61C140 63.7614 142.239 66 145 66Z" fill="url(#paint6_linear)"/>
<path d="M162 45C162 47.7614 159.761 50 157 50C154.239 50 152 47.7614 152 45C152 42.2386 154.239 40 157 40C159.761 40 162 42.2386 162 45Z" fill="url(#paint7_linear)"/>
<path d="M163 34C165.761 34 168 31.7614 168 29C168 26.2386 165.761 24 163 24C160.239 24 158 26.2386 158 29C158 31.7614 160.239 34 163 34Z" fill="url(#paint8_linear)"/>
<path d="M168 61C168 63.7614 165.761 66 163 66C160.239 66 158 63.7614 158 61C158 58.2386 160.239 56 163 56C165.761 56 168 58.2386 168 61Z" fill="url(#paint9_linear)"/>
<path d="M175 50C177.762 50 180 47.7614 180 45C180 42.2386 177.762 40 175 40C172.239 40 170 42.2386 170 45C170 47.7614 172.239 50 175 50Z" fill="url(#paint10_linear)"/>
<path d="M165.937 119.583C167.174 120.977 167.174 123.023 165.937 124.417C158.769 132.487 133.756 158 104 158C74.2439 158 49.2309 132.487 42.0633 124.417C40.8259 123.023 40.8259 120.977 42.0633 119.583C49.2309 111.513 74.2439 86 104 86C133.756 86 158.769 111.513 165.937 119.583Z" fill="url(#paint11_linear)"/>
<circle cx="104" cy="122" r="24" fill="url(#paint12_linear)"/>
<path d="M104 138C112.837 138 120 130.837 120 122C120 121.189 119.83 120.118 119.621 119.108C119.324 117.672 117.573 117.157 116.3 117.885C115.418 118.389 114.442 118.8 113.6 118.8C110.065 118.8 107.2 115.935 107.2 112.4C107.2 111.551 107.365 110.741 107.665 110C108.263 108.524 107.952 106.41 106.377 106.175C105.602 106.06 104.808 106 104 106C95.1634 106 88 113.163 88 122C88 130.837 95.1634 138 104 138Z" fill="#27D184"/>
<path fill-rule="evenodd" clip-rule="evenodd" d="M76 166.001C76 168.211 74.2092 170.001 72 170.001C69.7908 170.001 68 168.211 68 166.001C68 163.791 69.7908 162.001 72 162.001C74.2092 162.001 76 163.791 76 166.001ZM108 176C108 178.21 106.209 180 104 180C101.791 180 100 178.21 100 176C100 173.79 101.791 172 104 172C106.209 172 108 173.79 108 176ZM136 170C138.209 170 140 168.21 140 166C140 163.79 138.209 162 136 162C133.791 162 132 163.79 132 166C132 168.21 133.791 170 136 170Z" fill="url(#paint13_linear)"/>
<path d="M32.4922 18C30.4798 18 28.8484 19.6314 28.8484 21.644V28.9318C28.8484 30.9444 30.4798 32.5758 32.4922 32.5758H39.7802C41.7928 32.5758 43.4242 30.9444 43.4242 28.9318V21.644C43.4242 19.6314 41.7928 18 39.7802 18H32.4922Z" fill="url(#paint14_linear)"/>
<path d="M78.2858 18.911C78.9872 17.6964 80.7404 17.6964 81.4416 18.911L87.7532 29.8429C88.4544 31.0575 87.5778 32.5758 86.1752 32.5758H73.5522C72.1496 32.5758 71.273 31.0575 71.9744 29.8429L78.2858 18.911Z" fill="url(#paint15_linear)"/>
<path d="M34.5584 42.7745C35.2596 41.5599 37.0128 41.5599 37.7142 42.7745L44.0256 53.7065C44.727 54.9211 43.8504 56.4393 42.4478 56.4393H29.8248C28.4222 56.4393 27.5456 54.9211 28.2468 53.7065L34.5584 42.7745Z" fill="url(#paint16_linear)"/>
<path d="M50.7119 45.5075C50.7119 43.4949 52.3435 41.8635 54.3559 41.8635H61.6439C63.6563 41.8635 65.2879 43.4949 65.2879 45.5075V52.7953C65.2879 54.8079 63.6563 56.4393 61.6439 56.4393H54.3559C52.3435 56.4393 50.7119 54.8079 50.7119 52.7953V45.5075Z" fill="url(#paint17_linear)"/>
<path d="M57.9999 32.5758C62.0249 32.5758 65.2879 29.313 65.2879 25.288C65.2879 21.263 62.0249 18 57.9999 18C53.9749 18 50.7119 21.263 50.7119 25.288C50.7119 29.313 53.9749 32.5758 57.9999 32.5758Z" fill="url(#paint18_linear)"/>
<path d="M65.2879 73.288C65.2879 77.313 62.0249 80.5758 57.9999 80.5758C53.9749 80.5758 50.7119 77.313 50.7119 73.288C50.7119 69.263 53.9749 66 57.9999 66C62.0249 66 65.2879 69.263 65.2879 73.288Z" fill="url(#paint19_linear)"/>
<path d="M79.8637 56.4393C83.8887 56.4393 87.1517 53.1765 87.1517 49.1513C87.1517 45.1263 83.8887 41.8635 79.8637 41.8635C75.8387 41.8635 72.5757 45.1263 72.5757 49.1513C72.5757 53.1765 75.8387 56.4393 79.8637 56.4393Z" fill="url(#paint20_linear)"/>
<defs>
<linearGradient id="paint0_linear" x1="7.12121" y1="-7" x2="7.12121" y2="132" gradientUnits="userSpaceOnUse">
<stop stop-color="#AEF0D2"/>
<stop offset="0.619792" stop-color="#65DDA7"/>
<stop offset="1" stop-color="#3ECC8C"/>
</linearGradient>
<linearGradient id="paint1_linear" x1="100.931" y1="10" x2="100.931" y2="72" gradientUnits="userSpaceOnUse">
<stop stop-color="#F0F7FF"/>
<stop offset="1" stop-color="#A3FFD5"/>
</linearGradient>
<linearGradient id="paint2_linear" x1="146.097" y1="21.4096" x2="140.916" y2="67.9482" gradientUnits="userSpaceOnUse">
<stop stop-color="#F3F8FF"/>
<stop offset="1" stop-color="#70EAB3"/>
</linearGradient>
<linearGradient id="paint3_linear" x1="146.097" y1="21.4096" x2="140.917" y2="67.9482" gradientUnits="userSpaceOnUse">
<stop stop-color="#F3F8FF"/>
<stop offset="1" stop-color="#A8FFD8"/>
</linearGradient>
<linearGradient id="paint4_linear" x1="146.097" y1="21.4096" x2="140.917" y2="67.9482" gradientUnits="userSpaceOnUse">
<stop stop-color="#F3F8FF"/>
<stop offset="1" stop-color="#A3FFD5"/>
</linearGradient>
<linearGradient id="paint5_linear" x1="146.097" y1="21.4096" x2="140.916" y2="67.9482" gradientUnits="userSpaceOnUse">
<stop stop-color="#F3F8FF"/>
<stop offset="1" stop-color="#A4FFD6"/>
</linearGradient>
<linearGradient id="paint6_linear" x1="146.097" y1="21.4096" x2="140.917" y2="67.9482" gradientUnits="userSpaceOnUse">
<stop stop-color="#F3F8FF"/>
<stop offset="1" stop-color="#AFFFDB"/>
</linearGradient>
<linearGradient id="paint7_linear" x1="146.097" y1="21.4096" x2="140.916" y2="67.9482" gradientUnits="userSpaceOnUse">
<stop stop-color="#F3F8FF"/>
<stop offset="1" stop-color="#B2FEDC"/>
</linearGradient>
<linearGradient id="paint8_linear" x1="146.097" y1="21.4096" x2="140.916" y2="67.9482" gradientUnits="userSpaceOnUse">
<stop stop-color="#F3F8FF"/>
<stop offset="1" stop-color="#A2FDD4"/>
</linearGradient>
<linearGradient id="paint9_linear" x1="146.097" y1="21.4096" x2="140.916" y2="67.9482" gradientUnits="userSpaceOnUse">
<stop stop-color="#F3F8FF"/>
<stop offset="1" stop-color="#B0FFDB"/>
</linearGradient>
<linearGradient id="paint10_linear" x1="146.097" y1="21.4096" x2="140.916" y2="67.9482" gradientUnits="userSpaceOnUse">
<stop stop-color="#F3F8FF"/>
<stop offset="1" stop-color="#A5F4D1"/>
</linearGradient>
<linearGradient id="paint11_linear" x1="39.389" y1="86" x2="39.389" y2="160" gradientUnits="userSpaceOnUse">
<stop stop-color="#80E3B7"/>
<stop offset="0.395833" stop-color="#66E7AD"/>
<stop offset="1" stop-color="#62C598"/>
</linearGradient>
<linearGradient id="paint12_linear" x1="128" y1="98" x2="80" y2="98" gradientUnits="userSpaceOnUse">
<stop stop-color="#E2FFF2"/>
<stop offset="0.505208" stop-color="#DAFFEE"/>
<stop offset="1" stop-color="#A5FED6"/>
</linearGradient>
<linearGradient id="paint13_linear" x1="56.332" y1="155.751" x2="56.2074" y2="179.595" gradientUnits="userSpaceOnUse">
<stop stop-color="#79FFC2"/>
<stop offset="1" stop-color="#CAFFE7"/>
</linearGradient>
<linearGradient id="paint14_linear" x1="54.5524" y1="21.6211" x2="61.7946" y2="66.5163" gradientUnits="userSpaceOnUse">
<stop stop-color="#F3F8FF"/>
<stop offset="1" stop-color="#A5FFD6"/>
</linearGradient>
<linearGradient id="paint15_linear" x1="51.9394" y1="21.2435" x2="57.7736" y2="66.3209" gradientUnits="userSpaceOnUse">
<stop stop-color="#F3F8FF"/>
<stop offset="1" stop-color="#A7FFD7"/>
</linearGradient>
<linearGradient id="paint16_linear" x1="51.9393" y1="21.2432" x2="57.7736" y2="66.3206" gradientUnits="userSpaceOnUse">
<stop stop-color="#F3F8FF"/>
<stop offset="1" stop-color="#A6FED6"/>
</linearGradient>
<linearGradient id="paint17_linear" x1="54.552" y1="21.6208" x2="61.794" y2="66.516" gradientUnits="userSpaceOnUse">
<stop stop-color="#F3F8FF"/>
<stop offset="1" stop-color="#A5FED6"/>
</linearGradient>
<linearGradient id="paint18_linear" x1="54.552" y1="21.6211" x2="61.794" y2="66.5163" gradientUnits="userSpaceOnUse">
<stop stop-color="#F3F8FF"/>
<stop offset="1" stop-color="#A3FDD4"/>
</linearGradient>
<linearGradient id="paint19_linear" x1="54.552" y1="21.6211" x2="61.794" y2="66.5163" gradientUnits="userSpaceOnUse">
<stop stop-color="#F3F8FF"/>
<stop offset="1" stop-color="#AAFFD9"/>
</linearGradient>
<linearGradient id="paint20_linear" x1="54.552" y1="21.6208" x2="61.794" y2="66.516" gradientUnits="userSpaceOnUse">
<stop stop-color="#F3F8FF"/>
<stop offset="1" stop-color="#AAFFD9"/>
</linearGradient>
</defs>
</svg>
