<svg width="182" height="181" viewBox="0 0 182 181" fill="none" xmlns="http://www.w3.org/2000/svg">
<path fill-rule="evenodd" clip-rule="evenodd" d="M86.9587 164.512C128.247 164.512 161.719 131.192 161.719 90.0899C161.719 48.9877 128.247 15.6677 86.9587 15.6677C45.67 15.6677 12.1988 48.9877 12.1988 90.0899C12.1988 131.192 45.67 164.512 86.9587 164.512ZM86.9587 127.301C107.603 127.301 124.339 110.641 124.339 90.0901C124.339 69.5391 107.603 52.8791 86.9587 52.8791C66.3144 52.8791 49.5788 69.5391 49.5788 90.0901C49.5788 110.641 66.3144 127.301 86.9587 127.301Z" fill="url(#paint0_linear)"/>
<path d="M112.534 180.18H88.9261C83.4934 180.18 79.0892 175.795 79.0892 170.388V9.79239C79.0892 4.38425 83.4934 0 88.9261 0H90.8852C118.48 0 143.563 15.9555 155.157 40.8842L181.447 97.4139C183.257 101.308 180.401 105.758 176.09 105.758H163.686V141.01C163.686 147.5 158.401 152.761 151.882 152.761H128.273C125.014 152.761 122.371 155.392 122.371 158.637V170.388C122.371 175.795 117.967 180.18 112.534 180.18Z" fill="#27D184"/>
<ellipse cx="86.9586" cy="90.0901" rx="21.641" ry="21.5433" fill="#27D184"/>
<ellipse cx="147.947" cy="68.5468" rx="5.9021" ry="5.87543" fill="white"/>
<path d="M21.245 59.7336C18.9733 55.8167 13.2939 55.8167 11.0222 59.7336L0.799529 77.3599C-1.47219 81.2769 1.36751 86.1731 5.91094 86.1731H26.3564C30.8998 86.1731 33.7393 81.2769 31.4676 77.3599L21.245 59.7336Z" fill="url(#paint1_linear)"/>
<path d="M21.245 120.447C18.9733 124.363 13.2939 124.363 11.0222 120.447L0.799529 102.82C-1.47219 98.9033 1.36751 94.0071 5.91094 94.0071H26.3564C30.8998 94.0071 33.7393 98.9033 31.4676 102.82L21.245 120.447Z" fill="url(#paint2_linear)"/>
<path d="M98.7628 90.09C98.7628 96.5798 93.4779 101.841 86.9586 101.841C85.0365 101.841 83.2216 101.384 81.6178 100.572C78.9162 99.2053 80.5249 95.9654 83.5555 95.9654H84.9912C86.0778 95.9654 86.9586 95.0886 86.9586 94.0069C86.9586 92.9253 86.0778 92.0485 84.9912 92.0485H77.2939C76.1533 92.0485 75.1544 91.2257 75.1544 90.09C75.1544 83.6002 80.4394 78.3391 86.9586 78.3391C88.8807 78.3391 90.6956 78.7964 92.2994 79.6078C95.001 80.9746 93.3923 84.2145 90.3618 84.2145H88.926C87.8394 84.2145 86.9586 85.0914 86.9586 86.173C86.9586 87.2547 87.8394 88.1315 88.926 88.1315H96.6231C97.764 88.1315 98.7628 88.9543 98.7628 90.09Z" fill="url(#paint3_linear)"/>
<path d="M104.665 35.2524C104.665 38.369 105.908 41.3578 108.122 43.5615C110.336 45.7654 113.338 47.0033 116.469 47.0033C119.6 47.0033 122.602 45.7654 124.816 43.5615C127.03 41.3578 128.273 38.369 128.273 35.2524" stroke="url(#paint4_linear)" stroke-width="2" stroke-linecap="round"/>
<path d="M116.469 31.3356C116.469 28.2191 115.226 25.2302 113.012 23.0265C110.798 20.8227 107.796 19.5847 104.665 19.5847C101.534 19.5847 98.5319 20.8227 96.3182 23.0265C94.1044 25.2302 92.8608 28.2191 92.8608 31.3356" stroke="url(#paint5_linear)" stroke-width="2" stroke-linecap="round"/>
<path d="M96.3036 154.475C96.3036 156.503 94.652 158.147 92.6148 158.147C90.5776 158.147 88.926 156.503 88.926 154.475C88.926 152.447 90.5776 150.803 92.6148 150.803C94.652 150.803 96.3036 152.447 96.3036 154.475Z" fill="url(#paint6_linear)"/>
<path d="M96.3036 166.715C96.3036 168.744 94.652 170.388 92.6148 170.388C90.5776 170.388 88.926 168.744 88.926 166.715C88.926 164.686 90.5776 163.043 92.6148 163.043C94.652 163.043 96.3036 164.686 96.3036 166.715Z" fill="url(#paint7_linear)"/>
<path d="M104.911 170.388C106.948 170.388 108.6 168.744 108.6 166.715C108.6 164.686 106.948 163.043 104.911 163.043C102.874 163.043 101.222 164.686 101.222 166.715C101.222 168.744 102.874 170.388 104.911 170.388Z" fill="url(#paint8_linear)"/>
<defs>
<linearGradient id="paint0_linear" x1="123.355" y1="34.7629" x2="12.1988" y2="34.7629" gradientUnits="userSpaceOnUse">
<stop stop-color="#96FFD0"/>
<stop offset="1" stop-color="#E0FFF1"/>
</linearGradient>
<linearGradient id="paint1_linear" x1="-3.04041" y1="110.416" x2="47.8777" y2="117.934" gradientUnits="userSpaceOnUse">
<stop stop-color="#46FFAB"/>
<stop offset="1" stop-color="#90FFCD"/>
</linearGradient>
<linearGradient id="paint2_linear" x1="-3.04041" y1="110.416" x2="47.8777" y2="117.935" gradientUnits="userSpaceOnUse">
<stop stop-color="#46FFAB"/>
<stop offset="1" stop-color="#83FCC5"/>
</linearGradient>
<linearGradient id="paint3_linear" x1="96.1288" y1="73.1869" x2="74.0588" y2="92.2393" gradientUnits="userSpaceOnUse">
<stop stop-color="#8EFFCC"/>
<stop offset="1" stop-color="#D3FFEB"/>
</linearGradient>
<linearGradient id="paint4_linear" x1="128.273" y1="47.0033" x2="128.273" y2="35.2524" gradientUnits="userSpaceOnUse">
<stop stop-color="#C2FFE3"/>
<stop offset="1" stop-color="#65FDB8"/>
</linearGradient>
<linearGradient id="paint5_linear" x1="92.8608" y1="19.5847" x2="92.8608" y2="31.3356" gradientUnits="userSpaceOnUse">
<stop stop-color="#BCFEE0"/>
<stop offset="1" stop-color="#6DFFBD"/>
</linearGradient>
<linearGradient id="paint6_linear" x1="97.006" y1="147.854" x2="91.1316" y2="170.949" gradientUnits="userSpaceOnUse">
<stop stop-color="#75FFC1"/>
<stop offset="1" stop-color="#BAFFE0"/>
</linearGradient>
<linearGradient id="paint7_linear" x1="97.006" y1="147.854" x2="91.1316" y2="170.949" gradientUnits="userSpaceOnUse">
<stop stop-color="#64FFB9"/>
<stop offset="1" stop-color="#BAFFE0"/>
</linearGradient>
<linearGradient id="paint8_linear" x1="97.006" y1="147.854" x2="91.1316" y2="170.949" gradientUnits="userSpaceOnUse">
<stop stop-color="#70FFBE"/>
<stop offset="1" stop-color="#BAFFE0"/>
</linearGradient>
</defs>
</svg>
